<svg width="128" height="128" viewBox="0 0 128 128" fill="none" xmlns="http://www.w3.org/2000/svg">
  <defs>
    <linearGradient id="bgGradient" x1="0%" y1="0%" x2="100%" y2="100%">
      <stop offset="0%" style="stop-color:#18A0FB;stop-opacity:1" />
      <stop offset="100%" style="stop-color:#1592E6;stop-opacity:1" />
    </linearGradient>
  </defs>
  
  <!-- Rounded square background with gradient -->
  <rect width="128" height="128" rx="24" fill="url(#bgGradient)"/>
  
  <!-- Main icon group -->
  <g transform="translate(64, 64)">
    <!-- Tag/Label shape (represents naming) -->
    <path d="M-28 -18 L28 -18 L36 -10 L36 10 L28 18 L-28 18 L-36 10 L-36 -10 Z" 
          fill="white" 
          opacity="0.95"/>
    
    <!-- AI Sparkle icon (represents AI intelligence) -->
    <g transform="translate(0, 0)">
      <!-- Center dot -->
      <circle cx="0" cy="0" r="3.5" fill="#18A0FB"/>
      
      <!-- Main directional lines -->
      <line x1="0" y1="-16" x2="0" y2="-7" stroke="white" stroke-width="3" stroke-linecap="round"/>
      <line x1="0" y1="16" x2="0" y2="7" stroke="white" stroke-width="3" stroke-linecap="round"/>
      <line x1="-16" y1="0" x2="-7" y2="0" stroke="white" stroke-width="3" stroke-linecap="round"/>
      <line x1="16" y1="0" x2="7" y2="0" stroke="white" stroke-width="3" stroke-linecap="round"/>
      
      <!-- Diagonal lines -->
      <line x1="-11.3" y1="-11.3" x2="-4.9" y2="-4.9" stroke="white" stroke-width="2.5" stroke-linecap="round"/>
      <line x1="11.3" y1="11.3" x2="4.9" y2="4.9" stroke="white" stroke-width="2.5" stroke-linecap="round"/>
      <line x1="11.3" y1="-11.3" x2="4.9" y2="-4.9" stroke="white" stroke-width="2.5" stroke-linecap="round"/>
      <line x1="-11.3" y1="11.3" x2="-4.9" y2="4.9" stroke="white" stroke-width="2.5" stroke-linecap="round"/>
    </g>
  </g>
</svg>
